<svg width="14" height="16" viewBox="0 0 14 16" fill="none" xmlns="http://www.w3.org/2000/svg">
<path d="M13.7145 4.11839C13.6954 3.69746 13.6954 3.29567 13.6954 2.89387C13.6954 2.56861 13.4467 2.31988 13.1214 2.31988C10.7298 2.31988 8.91213 1.63109 7.40062 0.157848C7.17102 -0.0526158 6.82663 -0.0526158 6.59703 0.157848C5.08552 1.63109 3.26788 2.31988 0.876255 2.31988C0.550993 2.31988 0.302264 2.56861 0.302264 2.89387C0.302264 3.29567 0.302264 3.69746 0.283131 4.11839C0.206599 8.13632 0.0918003 13.6466 6.8075 15.9617L6.99883 16L7.19016 15.9617C13.8867 13.6466 13.7911 8.15546 13.7145 4.11839ZM6.53963 9.6861C6.42483 9.78176 6.2909 9.83916 6.13784 9.83916H6.11871C5.96564 9.83916 5.81258 9.76263 5.71691 9.64783L3.93754 7.67713L4.79853 6.91181L6.19524 8.46158L9.29479 5.5151L10.0792 6.35695L6.53963 9.6861Z" fill="white"/>
</svg>
