<svg width="25" height="25" viewBox="0 0 25 25" fill="none" xmlns="http://www.w3.org/2000/svg">
<g clip-path="url(#clip0_265_8146)">
<path d="M10.8546 9.70644C11.819 8.66043 12.3503 7.25734 12.3503 5.75522C12.3503 2.89523 10.3075 0 6.40246 0C4.58512 0 3.05198 0.624205 1.96855 1.80509C1.00885 2.85126 0.480469 4.25404 0.480469 5.75522C0.480469 8.61552 2.51463 11.5106 6.40246 11.5106C8.22658 11.5107 9.76643 10.8869 10.8546 9.70644ZM6.40246 2.67599C8.54211 2.67599 9.51655 4.27322 9.51655 5.75725C9.51655 6.56452 9.24491 7.31183 8.75122 7.86127C8.20046 8.47495 7.40005 8.79945 6.43716 8.79945C4.2434 8.79945 3.24401 7.20237 3.24401 5.7185C3.24401 4.2043 4.22078 2.67599 6.40246 2.67599Z" fill="#6F73EE"/>
<path d="M20.6046 2.22009C20.2507 2.22649 19.7676 2.44713 19.5309 2.71027L1.96364 22.242C1.72701 22.5053 1.89463 22.8744 2.24853 22.8744H4.54778C4.90167 22.8744 5.38436 22.6585 5.6206 22.395L23.0792 2.8673C23.3154 2.60354 23.2997 2.1744 22.715 2.17456L20.6046 2.22009Z" fill="#6F73EE"/>
<path d="M18.6843 13.7083C16.902 13.7083 15.3979 14.3209 14.335 15.4793C13.3936 16.5052 12.875 17.8815 12.875 19.3542C12.875 22.1597 14.8705 24.9999 18.6843 24.9999C20.4742 24.9999 21.9844 24.3879 23.052 23.23C23.9982 22.2038 24.5192 20.8274 24.5192 19.3542C24.5192 16.5486 22.515 13.7083 18.6843 13.7083ZM18.7187 22.4091C16.5844 22.4091 15.6119 20.8063 15.6119 19.3178C15.6119 18.5072 15.8834 17.7571 16.3767 17.2055C16.9266 16.5901 17.7245 16.2648 18.6843 16.2648C20.8188 16.2648 21.7909 17.8673 21.7909 19.3562C21.7909 20.1667 21.5193 20.9169 21.0264 21.4685C20.4763 22.0838 19.6783 22.4091 18.7187 22.4091Z" fill="#6F73EE"/>
</g>
<defs>
<clipPath id="clip0_265_8146">
<rect width="25" height="25" fill="white"/>
</clipPath>
</defs>
</svg>
