<svg width="152" height="45" viewBox="0 0 152 45" fill="none" xmlns="http://www.w3.org/2000/svg">
<path d="M145.749 44.8882H5.82358C2.74522 44.8882 0.226562 42.3695 0.226562 39.2912V5.70908C0.226562 2.63072 2.74522 0.112066 5.82358 0.112066H145.749C148.827 0.112066 151.346 2.63072 151.346 5.70908V39.2912C151.346 42.3695 148.827 44.8882 145.749 44.8882Z" fill="white"/>
<path d="M119.93 33.6939H122.019V19.7H119.93V33.6939ZM138.744 24.7409L136.35 30.808H136.278L133.793 24.7409H131.543L135.269 33.2208L133.145 37.9376H135.324L141.067 24.7409H138.744ZM126.898 32.1045C126.213 32.1045 125.26 31.7625 125.26 30.916C125.26 29.8359 126.448 29.4218 127.474 29.4218C128.393 29.4218 128.824 29.6199 129.382 29.8902C129.22 31.1862 128.104 32.1045 126.898 32.1045V32.1045ZM127.15 24.4348C125.638 24.4348 124.072 25.1012 123.424 26.5774L125.278 27.3514C125.674 26.5774 126.411 26.3251 127.186 26.3251C128.266 26.3251 129.364 26.9736 129.382 28.1258V28.2696C129.004 28.0536 128.195 27.7296 127.204 27.7296C125.206 27.7296 123.171 28.8275 123.171 30.8801C123.171 32.7525 124.81 33.9589 126.645 33.9589C128.05 33.9589 128.824 33.3288 129.311 32.5908H129.382V33.6708H131.398V28.3055C131.398 25.8214 129.545 24.4348 127.15 24.4348V24.4348ZM114.241 26.4444H111.27V21.6477H114.241C115.803 21.6477 116.689 22.9406 116.689 24.046C116.689 25.1305 115.803 26.4444 114.241 26.4444ZM114.188 19.7H109.183V33.6939H111.27V28.3921H114.188C116.503 28.3921 118.778 26.716 118.778 24.046C118.778 21.3761 116.503 19.7 114.188 19.7ZM86.8954 32.1071C85.4524 32.1071 84.2442 30.8989 84.2442 29.2395C84.2442 27.5626 85.4524 26.3361 86.8954 26.3361C88.3201 26.3361 89.4382 27.5626 89.4382 29.2395C89.4382 30.8989 88.3201 32.1071 86.8954 32.1071V32.1071ZM89.2939 25.5245H89.2217C88.753 24.9656 87.8508 24.4606 86.7149 24.4606C84.3344 24.4606 82.1524 26.5525 82.1524 29.2395C82.1524 31.9086 84.3344 33.9825 86.7149 33.9825C87.8508 33.9825 88.753 33.4774 89.2217 32.9007H89.2939V33.5859C89.2939 35.4076 88.3201 36.3814 86.7511 36.3814C85.4708 36.3814 84.6772 35.4614 84.3523 34.6861L82.5311 35.4434C83.0541 36.7058 84.4428 38.2568 86.7511 38.2568C89.2038 38.2568 91.2777 36.8138 91.2777 33.2973V24.7492H89.2939V25.5245ZM92.7202 33.6939H94.8122V19.6996H92.7202V33.6939ZM97.8961 29.0773C97.842 27.2377 99.3208 26.3002 100.385 26.3002C101.215 26.3002 101.918 26.7147 102.152 27.3103L97.8961 29.0773ZM104.388 27.4904C103.992 26.4261 102.783 24.4606 100.312 24.4606C97.8599 24.4606 95.8222 26.3903 95.8222 29.2216C95.8222 31.8907 97.842 33.9825 100.547 33.9825C102.729 33.9825 103.992 32.648 104.515 31.8727L102.892 30.7904C102.351 31.5841 101.611 32.1071 100.547 32.1071C99.483 32.1071 98.7257 31.62 98.2386 30.6645L104.604 28.0313L104.388 27.4904ZM53.6702 25.9215V27.9412H58.5032C58.3589 29.0773 57.9802 29.9068 57.4031 30.4839C56.7 31.1875 55.5998 31.9628 53.6702 31.9628C50.6945 31.9628 48.3683 29.5643 48.3683 26.5887C48.3683 23.6131 50.6945 21.2144 53.6702 21.2144C55.2753 21.2144 56.4472 21.8457 57.313 22.6573L58.7376 21.2327C57.5295 20.0783 55.9242 19.1946 53.6702 19.1946C49.5943 19.1946 46.168 22.513 46.168 26.5887C46.168 30.6645 49.5943 33.9825 53.6702 33.9825C55.8705 33.9825 57.5295 33.2615 58.8277 31.9086C60.1623 30.574 60.5773 28.6986 60.5773 27.1839C60.5773 26.7147 60.5413 26.2822 60.4688 25.9215H53.6702ZM66.072 32.1071C64.6289 32.1071 63.3845 30.9168 63.3845 29.2216C63.3845 27.5083 64.6289 26.3361 66.072 26.3361C67.5144 26.3361 68.7589 27.5083 68.7589 29.2216C68.7589 30.9168 67.5144 32.1071 66.072 32.1071V32.1071ZM66.072 24.4606C63.4387 24.4606 61.2926 26.4624 61.2926 29.2216C61.2926 31.9628 63.4387 33.9825 66.072 33.9825C68.7047 33.9825 70.8508 31.9628 70.8508 29.2216C70.8508 26.4624 68.7047 24.4606 66.072 24.4606ZM76.4972 32.1071C75.0547 32.1071 73.8102 30.9168 73.8102 29.2216C73.8102 27.5083 75.0547 26.3361 76.4972 26.3361C77.9398 26.3361 79.1842 27.5083 79.1842 29.2216C79.1842 30.9168 77.9398 32.1071 76.4972 32.1071ZM76.4972 24.4606C73.864 24.4606 71.7183 26.4624 71.7183 29.2216C71.7183 31.9628 73.864 33.9825 76.4972 33.9825C79.13 33.9825 81.2761 31.9628 81.2761 29.2216C81.2761 26.4624 79.13 24.4606 76.4972 24.4606Z" fill="#282739"/>
<path d="M11.9919 36.3691L11.9087 36.2896C11.5829 35.9449 11.3906 35.4097 11.3906 34.7167V34.8798V10.1231C11.3906 10.1208 11.3906 10.1191 11.3906 10.1174C11.3906 10.1195 11.3906 10.1213 11.3906 10.1235V10.2871C11.3906 9.53661 11.6148 8.97131 11.9905 8.63235L25.8597 22.5012L11.9919 36.3691ZM11.3906 10.116C11.3906 10.0543 11.3923 9.99444 11.3954 9.93545C11.3923 9.994 11.3906 10.0543 11.3906 10.116ZM11.3954 9.93277C11.3954 9.93198 11.3954 9.93108 11.3958 9.93019C11.3954 9.93108 11.3954 9.93198 11.3954 9.93277ZM11.3958 9.92493C11.3958 9.92448 11.3958 9.92403 11.3958 9.92359C11.3958 9.92403 11.3958 9.92448 11.3958 9.92493Z" fill="url(#paint0_linear_18790_505)"/>
<path d="M30.4817 27.2891L30.5872 27.2292L36.0643 24.1171C36.5865 23.8203 36.9345 23.4604 37.1081 23.0795C36.935 23.4604 36.5868 23.8207 36.0643 24.1176L30.5872 27.2296L30.4817 27.2891V27.2891ZM30.4831 27.1251L25.8594 22.5006L30.4826 17.8769L36.0643 21.0479C36.7731 21.4507 37.1711 21.9698 37.2375 22.5001C37.2375 22.5006 37.2375 22.5015 37.2375 22.5023C37.1711 23.0314 36.7731 23.5509 36.0643 23.9536L30.4831 27.1251" fill="url(#paint1_linear_18790_505)"/>
<path d="M12.9749 36.8975C12.5875 36.8975 12.2494 36.7715 11.9858 36.5337L11.9863 36.5332C12.2499 36.7711 12.5884 36.8975 12.9758 36.8975C13.0094 36.8975 13.0436 36.8966 13.0781 36.8949C13.0431 36.8966 13.0085 36.8975 12.9749 36.8975V36.8975ZM12.9754 36.7335C12.588 36.7339 12.2499 36.6075 11.9863 36.3697V36.3693L25.8541 22.5014L30.4778 27.1259L14.2294 36.3579C13.7799 36.6128 13.354 36.7335 12.9754 36.7335V36.7335ZM11.9824 36.5306C11.9578 36.5084 11.9338 36.4847 11.9102 36.4602L11.9824 36.5306Z" fill="url(#paint2_linear_18790_505)"/>
<path d="M25.8575 22.501L11.9883 8.63214C12.2519 8.39471 12.5895 8.26878 12.9765 8.26878C13.3561 8.26878 13.7823 8.3899 14.2328 8.64523L30.4807 17.8773L25.8575 22.501V22.501ZM30.5853 17.7728L14.2328 8.4818C13.7823 8.22635 13.3561 8.10523 12.9765 8.10523C12.9747 8.10523 12.9735 8.10523 12.9717 8.10523C12.9739 8.10523 12.9756 8.10523 12.9783 8.10523C13.357 8.10523 13.7828 8.2259 14.2328 8.48135L30.5853 17.7728V17.7728Z" fill="url(#paint3_linear_18790_505)"/>
<path d="M13.0813 36.8945C13.4332 36.8744 13.8229 36.7533 14.2326 36.5211L30.4796 27.2895L14.2326 36.5211C13.8232 36.7537 13.4332 36.8744 13.0813 36.8945V36.8945ZM11.989 36.5333L11.9855 36.5303C11.9867 36.5312 11.9881 36.5324 11.989 36.5333ZM11.9133 36.4599L11.9062 36.4529V36.4525C11.9089 36.4551 11.9111 36.4576 11.9133 36.4599Z" fill="white"/>
<path d="M30.4766 27.2891L30.582 27.2292L30.4766 27.2891Z" fill="url(#paint4_linear_18790_505)"/>
<path d="M12.979 36.8975C12.5915 36.8975 12.253 36.7711 11.9894 36.5332L11.989 36.5337C11.9881 36.5328 11.9867 36.5315 11.9855 36.5306L11.9133 36.4602C11.9111 36.458 11.9089 36.4554 11.9062 36.4528L11.9894 36.3697C12.253 36.6075 12.5911 36.7339 12.9785 36.7335C13.3571 36.7335 13.783 36.6128 14.2326 36.3579L30.481 27.1259L30.5851 27.23L30.4796 27.2898L14.2326 36.5215C13.8229 36.7536 13.4332 36.8747 13.0813 36.8949C13.0467 36.8966 13.0126 36.8975 12.979 36.8975" fill="url(#paint5_linear_18790_505)"/>
<path d="M11.9087 36.4531C11.5829 36.1085 11.3906 35.5733 11.3906 34.8803V34.8798C11.3906 35.5733 11.5829 36.108 11.9087 36.4527V36.4531" fill="white"/>
<path d="M11.9087 36.4521C11.5829 36.1075 11.3906 35.5727 11.3906 34.8793V34.7162C11.3906 35.4092 11.5829 35.9444 11.9087 36.2891L11.9919 36.3686L11.9087 36.4521" fill="url(#paint6_linear_18790_505)"/>
<path d="M11.9062 36.4521L11.9894 36.3686V36.369L11.9062 36.4521" fill="url(#paint7_linear_18790_505)"/>
<path d="M37.1094 23.0801C37.1955 22.8911 37.2388 22.697 37.2388 22.5028C37.2388 22.5025 37.2388 22.502 37.2388 22.502C37.2388 22.6966 37.1955 22.8907 37.1094 23.0801Z" fill="white"/>
<path d="M30.5846 27.23L30.4805 27.1259L36.0617 23.9544C36.7705 23.5517 37.1685 23.0322 37.235 22.5031C37.235 22.6973 37.1916 22.8914 37.1056 23.0804C36.9319 23.4612 36.5839 23.8211 36.0617 24.1179L30.5846 27.23Z" fill="url(#paint8_linear_18790_505)"/>
<path d="M37.2368 22.501V22.5005C37.2363 21.915 36.845 21.3295 36.0635 20.8852L30.5864 17.7732H30.5859L30.5864 17.7728L36.0635 20.8848C36.8459 21.3291 37.2377 21.9154 37.2368 22.501Z" fill="#282739"/>
<path d="M37.2354 22.5005C37.1689 21.9701 36.7709 21.451 36.0621 21.0483L30.4805 17.8772L30.5846 17.7731H30.585L36.0621 20.8852C36.8436 21.3295 37.2349 21.9149 37.2354 22.5005Z" fill="url(#paint9_linear_18790_505)"/>
<path d="M11.3906 10.1172C11.3906 10.1167 11.3906 10.1163 11.3906 10.1158C11.3906 10.1163 11.3906 10.1167 11.3906 10.1172ZM11.3954 9.93528C11.3954 9.93439 11.3954 9.9335 11.3954 9.9326C11.3954 9.9335 11.3954 9.93439 11.3954 9.93528ZM11.3958 9.93002C11.3958 9.92823 11.3958 9.92655 11.3958 9.92476C11.3958 9.92655 11.3958 9.92823 11.3958 9.93002ZM11.3958 9.92342C11.4606 8.77346 12.0859 8.10921 12.9704 8.10529C12.5869 8.10753 12.2529 8.23346 11.9914 8.46909V8.46865L11.9883 8.47178C11.9607 8.49663 11.9345 8.52294 11.9087 8.55002C11.6148 8.86088 11.4295 9.32656 11.3958 9.92342Z" fill="#282739"/>
<path d="M11.3906 10.2866V10.1231C11.3906 10.1208 11.3906 10.119 11.3906 10.1169C11.3906 10.1165 11.3906 10.116 11.3906 10.1156C11.3906 10.0539 11.3923 9.99356 11.3954 9.93502C11.3954 9.93412 11.3954 9.93323 11.3954 9.93233C11.3954 9.93155 11.3954 9.93065 11.3958 9.92976C11.3958 9.92797 11.3958 9.92629 11.3958 9.9245C11.3958 9.92405 11.3958 9.9236 11.3958 9.92315C11.4295 9.32629 11.6148 8.86061 11.9087 8.54975L11.9905 8.63192C11.6148 8.97088 11.3906 9.53617 11.3906 10.2866V10.2866ZM11.9883 8.47151L11.9914 8.46837C11.9905 8.46972 11.9892 8.47061 11.9883 8.47151Z" fill="url(#paint10_linear_18790_505)"/>
<path d="M30.4805 17.8774L14.2326 8.64539C13.7821 8.39005 13.3559 8.26893 12.9763 8.26893C12.5893 8.26893 12.2517 8.39487 11.9881 8.63229L11.9062 8.55013C11.9321 8.52304 11.9583 8.49673 11.9858 8.47188C11.9867 8.47098 11.9881 8.47009 11.989 8.46919C12.2505 8.23356 12.5845 8.10763 12.968 8.10539C12.9689 8.10539 12.9701 8.10539 12.9715 8.10539C12.9733 8.10539 12.9745 8.10539 12.9763 8.10539C13.3559 8.10539 13.7821 8.22651 14.2326 8.48195L30.5851 17.773L30.5846 17.7733L30.4805 17.8774Z" fill="url(#paint11_linear_18790_505)"/>
<path d="M48.916 11.269C48.9291 12.3316 48.7162 13.1886 48.2788 13.8393H51.6742V8.77309H48.916V11.269ZM47.3681 16.0898H46.543V13.8393H47.1997C47.7813 13.3381 48.0655 12.482 48.0537 11.269V7.94798H52.5378V13.8393H53.2878V16.0898H52.4623V14.6644H47.3681V16.0898" fill="#282739"/>
<path d="M48.9186 11.2689L48.8066 11.2702L48.8075 11.3607C48.8071 12.366 48.5972 13.1689 48.1883 13.7766L48.0712 13.9511H51.7887V8.66102H48.8066V11.2698V11.2702L48.9186 11.2689H49.0305V8.88491H51.5648V13.7272H48.2814V13.8392L48.3742 13.9013C48.8145 13.2462 49.0314 12.3961 49.0314 11.3607L49.0305 11.2676L48.9186 11.2689H49.0305H48.9186ZM47.3706 16.0897V15.9778H46.6575V13.9511H47.2023H47.2438L47.2753 13.924C47.8804 13.4019 48.1687 12.5321 48.1687 11.3423L48.1682 11.268V11.2689V8.05979H52.4284V13.9511H53.1784V15.9778H52.5768V14.6643V14.5523H47.2587V16.0897H47.3706V15.9778V16.0897H47.4826V14.7762H52.3529V16.0897V16.2017H53.2904H53.4023V13.7272H52.6523V7.83591H47.9443V11.2693V11.2698L47.9448 11.3423C47.9443 12.5007 47.6636 13.2952 47.1292 13.7539L47.2023 13.8392V13.7272H46.5455H46.4336V16.2017H47.3706H47.4826V16.0897H47.3706" fill="#282739"/>
<path d="M55.7321 13.2337C56.2296 13.737 56.8375 13.9884 57.5568 13.9884C58.276 13.9884 58.8848 13.737 59.381 13.2337C59.8787 12.7304 60.1279 12.0871 60.1279 11.3058C60.1279 10.5244 59.8787 9.88109 59.381 9.37781C58.8848 8.87452 58.276 8.62311 57.5568 8.62311C56.8375 8.62311 56.2296 8.87452 55.7321 9.37781C55.2357 9.88109 54.9866 10.5244 54.9866 11.3058C54.9866 12.0871 55.2357 12.7304 55.7321 13.2337ZM60.0195 13.796C59.3592 14.475 58.5384 14.814 57.5568 14.814C56.5751 14.814 55.7539 14.475 55.0949 13.796C54.4347 13.1177 54.1055 12.2875 54.1055 11.3058C54.1055 10.324 54.4347 9.49366 55.0949 8.81553C55.7539 8.13639 56.5751 7.7971 57.5568 7.7971C58.5327 7.7971 59.3518 8.13818 60.015 8.8199C60.6775 9.50161 61.0089 10.3302 61.0089 11.3058C61.0089 12.2875 60.6788 13.1177 60.0195 13.796Z" fill="#282739"/>
<path d="M55.7307 13.2341L55.6511 13.3128C56.1666 13.8362 56.8098 14.1021 57.5555 14.1007C58.3006 14.1021 58.9451 13.8362 59.4592 13.3128C59.9783 12.7889 60.2394 12.1111 60.2385 11.3061C60.2394 10.5012 59.9783 9.82336 59.4592 9.29948C58.9451 8.77604 58.3006 8.51019 57.5555 8.51153C56.8098 8.51019 56.1666 8.77604 55.6511 9.29948C55.1334 9.82336 54.8724 10.5012 54.8733 11.3061C54.8724 12.1111 55.1334 12.7889 55.6511 13.3128L55.7307 13.2341L55.8108 13.1554C55.3358 12.6721 55.0984 12.0643 55.0972 11.3061C55.0984 10.5479 55.3358 9.94011 55.8108 9.45687H55.8103C56.2895 8.97373 56.8619 8.73675 57.5555 8.73541C58.2485 8.73675 58.8222 8.97373 59.3001 9.45687L59.3019 9.45866L59.3001 9.45687C59.7763 9.94011 60.0133 10.5479 60.0146 11.3061C60.0133 12.0643 59.7763 12.6721 59.3001 13.1554C58.8222 13.6385 58.2485 13.8755 57.5555 13.8768C56.8619 13.8755 56.2895 13.6385 55.8103 13.1554L55.7307 13.2341ZM60.0182 13.7963L59.9381 13.7185C59.2966 14.3762 58.5113 14.701 57.5555 14.7024C56.5992 14.701 55.8142 14.3762 55.1736 13.7185C54.5334 13.0587 54.2173 12.2629 54.2161 11.3061C54.2173 10.3494 54.5334 9.55358 55.1736 8.89369C55.8142 8.23604 56.5992 7.91075 57.5555 7.9094C58.5056 7.91075 59.2888 8.23739 59.9338 8.89851C60.5765 9.56142 60.8944 10.356 60.8957 11.3061C60.8944 12.2629 60.5774 13.0587 59.9381 13.7185L60.0182 13.7963L60.0985 13.8741C60.7772 13.1772 61.1204 12.3127 61.1195 11.3061C61.1204 10.3053 60.7763 9.44254 60.0942 8.74246C59.412 8.0397 58.5577 7.68429 57.5555 7.68552C56.548 7.68429 55.6909 8.03802 55.0132 8.7381V8.73765C54.3332 9.43504 53.9913 10.2996 53.9922 11.3061C53.9913 12.3127 54.3332 13.1772 55.0132 13.8746V13.8741C55.6909 14.5742 56.548 14.9272 57.5555 14.9263C58.5625 14.9272 59.4195 14.5742 60.0985 13.8741L60.0182 13.7963Z" fill="#282739"/>
<path d="M65.3527 14.814C64.3645 14.814 63.5359 14.4795 62.8668 13.81C62.1965 13.141 61.8633 12.3062 61.8633 11.3058C61.8633 10.3052 62.1965 9.47049 62.8668 8.80154C63.5359 8.13202 64.3645 7.7971 65.3527 7.7971C66.365 7.7971 67.1879 8.16314 67.8197 8.89467L67.2185 9.47665C66.7629 8.90732 66.1397 8.62311 65.3527 8.62311C64.6203 8.62311 64.0023 8.87016 63.4995 9.36426C62.9958 9.85837 62.7444 10.5056 62.7444 11.3058C62.7444 12.1059 62.9958 12.7536 63.4995 13.2472C64.0023 13.7414 64.6203 13.9884 65.3527 13.9884C66.1594 13.9884 66.8469 13.6634 67.4165 13.0133L68.0165 13.6132C67.7096 13.9822 67.3256 14.2747 66.8621 14.4899C66.3999 14.7059 65.8958 14.814 65.3527 14.814" fill="#282739"/>
<path d="M65.3514 14.8143V14.7024C64.3881 14.701 63.5944 14.3797 62.9446 13.7312C62.2953 13.0818 61.9748 12.2817 61.9739 11.3061C61.9748 10.3306 62.2953 9.53041 62.9446 8.88105C63.5944 8.23213 64.3881 7.91075 65.3514 7.9094C66.337 7.9112 67.1206 8.26011 67.7335 8.96802L67.8184 8.89504L67.7406 8.81455L67.1394 9.39698L67.2172 9.47702L67.3046 9.40705C66.8297 8.81153 66.1647 8.50985 65.3514 8.51153C64.5935 8.51064 63.9416 8.7709 63.4199 9.28459C62.893 9.80019 62.6297 10.4831 62.6311 11.3061C62.6297 12.1291 62.893 12.8129 63.4199 13.3276C63.9416 13.8413 64.5935 14.1016 65.3514 14.1007C66.1887 14.1021 66.9141 13.7583 67.4991 13.0875L67.4152 13.0137L67.336 13.0928L67.936 13.6927L68.0152 13.6135L67.929 13.5423C67.6326 13.8982 67.2635 14.1799 66.8135 14.3888C66.3662 14.5978 65.88 14.7019 65.3514 14.7024V14.8143V14.9263C65.9093 14.9263 66.4306 14.8152 66.908 14.5918C67.3855 14.3705 67.7835 14.0675 68.1013 13.6853L68.1664 13.6071L67.4944 12.9345L67.4096 12.8497L67.3309 12.9398C66.7772 13.5699 66.1275 13.8755 65.3514 13.8768C64.6439 13.8755 64.061 13.642 63.5769 13.1676H63.5765C63.0955 12.6953 62.8559 12.0835 62.855 11.3061C62.8559 10.5287 63.0955 9.91784 63.5765 9.44466H63.5769C64.061 8.97026 64.6439 8.73675 65.3514 8.73541C66.1118 8.7372 66.6928 9.00396 67.1297 9.54698L67.2066 9.64325L67.8962 8.97552L67.9723 8.90198L67.9033 8.82205C67.253 8.06645 66.3903 7.68429 65.3514 7.68552C64.3377 7.68463 63.4741 8.03321 62.7864 8.72276C62.095 9.41097 61.7487 10.2812 61.75 11.3061C61.7487 12.331 62.095 13.2013 62.7864 13.8899C63.4741 14.579 64.3377 14.9272 65.3514 14.9263V14.8143" fill="#282739"/>
<path d="M71.5089 14.6641H70.6454V8.77275H68.7695V7.94764H73.3848V8.77275H71.5089V14.6641Z" fill="#282739"/>
<path d="M71.5076 14.6644V14.5525H70.756V8.66118H68.8801V8.05995H73.2715V8.66118H71.3957V14.6644H71.5076V14.5525V14.6644H71.6195V8.88506H73.4954V7.94801V7.83607H68.6562V8.77312V8.88506H70.5321V14.7764H71.5076H71.6195V14.6644H71.5076" fill="#282739"/>
<path d="M75.2558 12.0369H77.4876L76.3901 9.0076H76.3529L75.2558 12.0369ZM73.3516 14.6641L75.8847 7.94764H76.8593L79.392 14.6641H78.4357L77.788 12.8437H74.9651L74.3083 14.6641H73.3516Z" fill="#282739"/>
<path d="M75.2575 12.0373V12.1492H77.649L76.47 8.89603H76.3546H76.2759L75.098 12.1492H75.2575V12.0373L75.3629 12.0758L76.4601 9.04603L76.3546 9.00797V9.11991H76.3918V9.00797L76.2864 9.04603L77.3297 11.9254H75.2575V12.0373L75.3629 12.0758L75.2575 12.0373ZM73.3533 14.6644L73.4582 14.7038L75.9637 8.05995H76.7831L79.2318 14.5525H78.5161L77.8688 12.7321H74.8881L74.2312 14.5525H73.3533V14.6644L73.4582 14.7038L73.3533 14.6644V14.7764H74.31H74.3887L75.0455 12.956H77.711L78.3582 14.7764H79.3937H79.5554L76.9384 7.83607H75.8864H75.8089L73.1914 14.7764H73.3533V14.6644" fill="#282739"/>
<path d="M80.3711 14.6641V7.94764H85.2304V14.6641H84.3669V8.77275H81.2338V14.6641H80.3711Z" fill="#282739"/>
<path d="M80.3698 14.6644H80.4817V8.05995H85.1171V14.5525H84.4775V8.66118H81.1205V14.5525H80.3698V14.6644H80.4817H80.3698V14.7764H81.2325H81.3444V8.88506H84.2536V14.7764H85.2291H85.341V7.83607H80.2578V14.7764H80.3698V14.6644" fill="#282739"/>
<path d="M86.7695 14.6641V7.94764H87.6324V10.8271H90.9906V7.94764H91.8536V14.6641H90.9906V11.6338H87.6324V14.6641H86.7695Z" fill="#282739"/>
<path d="M86.7682 14.6644H86.8801V8.05995H87.5191L87.5186 10.9394H91.1012V8.05995H91.7404V14.5525H91.1007L91.1012 11.5223H87.5186V14.5525H86.7682V14.6644H86.8801H86.7682V14.7764H87.631H87.743V11.7461H90.8769V14.7764H91.8523H91.9642V7.83607H90.9892H90.8769V10.7155H87.7425L87.743 7.83607H86.7682H86.6562V14.7764H86.7682V14.6644Z" fill="#282739"/>
<path d="M94.5954 13.2337C95.093 13.737 95.7003 13.9884 96.4196 13.9884C97.1394 13.9884 97.748 13.737 98.2444 13.2337C98.7415 12.7304 98.9913 12.0871 98.9913 11.3058C98.9913 10.5244 98.7415 9.88109 98.2444 9.37781C97.748 8.87452 97.1394 8.62311 96.4196 8.62311C95.7003 8.62311 95.093 8.87452 94.5954 9.37781C94.0991 9.88109 93.8498 10.5244 93.8498 11.3058C93.8498 12.0871 94.0991 12.7304 94.5954 13.2337ZM98.8828 13.796C98.2226 14.475 97.4018 14.814 96.4196 14.814C95.4385 14.814 94.6173 14.475 93.9583 13.796C93.2981 13.1177 92.9688 12.2875 92.9688 11.3058C92.9688 10.324 93.2981 9.49366 93.9583 8.81553C94.6173 8.13639 95.4385 7.7971 96.4196 7.7971C97.3961 7.7971 98.2146 8.13818 98.8784 8.8199C99.5409 9.50161 99.8723 10.3302 99.8723 11.3058C99.8723 12.2875 99.5422 13.1177 98.8828 13.796Z" fill="#282739"/>
<path d="M94.594 13.2341L94.5144 13.3128C95.03 13.8362 95.6732 14.1021 96.4183 14.1007C97.1638 14.1021 97.8079 13.8362 98.3226 13.3128C98.8417 12.7889 99.1028 12.1111 99.1019 11.3061C99.1028 10.5012 98.8417 9.82336 98.3226 9.29948C97.8079 8.77604 97.1638 8.51019 96.4183 8.51153C95.6732 8.51019 95.03 8.77604 94.5144 9.29948C93.9967 9.82336 93.7357 10.5012 93.7366 11.3061C93.7357 12.1111 93.9967 12.7889 94.5144 13.3128L94.594 13.2341L94.6736 13.1554C94.1988 12.6721 93.9613 12.0643 93.9604 11.3061C93.9613 10.5479 94.1988 9.94011 94.6736 9.45687C95.1529 8.97373 95.7253 8.73675 96.4183 8.73541C97.1119 8.73675 97.6856 8.97373 98.1635 9.45687L98.1665 9.46045L98.1635 9.45687C98.6392 9.94011 98.8766 10.5479 98.878 11.3061C98.8766 12.0643 98.6392 12.6721 98.1635 13.1554C97.6856 13.6385 97.1119 13.8755 96.4183 13.8768C95.7253 13.8755 95.1529 13.6385 94.6736 13.1554L94.594 13.2341ZM98.8814 13.7963L98.801 13.7185C98.1595 14.3762 97.3746 14.701 96.4183 14.7024C95.4625 14.701 94.6775 14.3762 94.037 13.7185L94.0339 13.7151L94.037 13.7185C93.3964 13.0587 93.0802 12.2629 93.0794 11.3061C93.0802 10.3494 93.3964 9.55358 94.037 8.89369C94.6775 8.23604 95.4625 7.91075 96.4183 7.9094C97.3686 7.91075 98.1517 8.23739 98.797 8.89851C99.4398 9.56142 99.7577 10.356 99.7591 11.3061C99.7577 12.2629 99.4407 13.0587 98.801 13.7185L98.8814 13.7963L98.9619 13.8741C99.6405 13.1772 99.9838 12.3127 99.9829 11.3061C99.9838 10.3053 99.6393 9.44254 98.9576 8.74246C98.2754 8.0397 97.4205 7.68429 96.4183 7.68552C95.4113 7.68429 94.5543 8.03802 93.8765 8.7381V8.73765C93.1966 9.43504 92.8546 10.2996 92.8555 11.3061C92.8546 12.3127 93.1966 13.1772 93.8765 13.8746V13.8741C94.5543 14.5742 95.4113 14.9272 96.4183 14.9263C97.4258 14.9272 98.2828 14.5742 98.9619 13.8741L98.8814 13.7963" fill="#282739"/>
<path d="M103.402 14.6641V7.94764H104.264V10.8271H107.622V7.94764H108.487V14.6641H107.622V11.6338H104.264V14.6641H103.402Z" fill="#282739"/>
<path d="M103.401 14.6644H103.513V8.05995H104.151V10.9394H107.733V8.05995H108.373V14.5525H107.733V11.5223H104.151V14.5525H103.401V14.6644H103.513H103.401V14.7764H104.263H104.375V11.7461H107.509V14.7764H108.485H108.597V7.83607H107.621H107.509V10.7155H104.375V7.83607H103.401H103.289V14.7764H103.401V14.6644Z" fill="#282739"/>
<path d="M111.365 12.0369H113.597L112.5 9.0076H112.463L111.365 12.0369ZM109.461 14.6641L111.994 7.94764H112.969L115.502 14.6641H114.545L113.898 12.8437H111.074L110.418 14.6641H109.461Z" fill="#282739"/>
<path d="M111.363 12.0373V12.1492H113.755L112.577 8.89603H112.461H112.383L111.204 12.1492H111.363V12.0373L111.469 12.0758L112.567 9.04603L112.461 9.00797V9.11991H112.498V9.00797L112.393 9.04603L113.436 11.9254H111.363V12.0373L111.469 12.0758L111.363 12.0373ZM109.459 14.6644L109.564 14.7038L112.07 8.05995H112.89L115.338 14.5525H114.623L113.975 12.7321H110.994L110.337 14.5525H109.459V14.6644L109.564 14.7038L109.459 14.6644V14.7764H110.416H110.495L111.152 12.956H113.817L114.464 14.7764H115.501H115.662L113.045 7.83607H111.992H111.915L109.297 14.7764H109.459V14.6644" fill="#282739"/>
<defs>
<linearGradient id="paint0_linear_18790_505" x1="24.6299" y1="9.86191" x2="5.84354" y2="28.6483" gradientUnits="userSpaceOnUse">
<stop stop-color="#00A0FF"/>
<stop offset="0.00657445" stop-color="#00A1FF"/>
<stop offset="0.2601" stop-color="#00BEFF"/>
<stop offset="0.5122" stop-color="#00D2FF"/>
<stop offset="0.7604" stop-color="#00DFFF"/>
<stop offset="1" stop-color="#00E3FF"/>
</linearGradient>
<linearGradient id="paint1_linear_18790_505" x1="38.1012" y1="22.5013" x2="11.015" y2="22.5013" gradientUnits="userSpaceOnUse">
<stop stop-color="#FFE000"/>
<stop offset="0.4087" stop-color="#FFBD00"/>
<stop offset="0.7754" stop-color="#FFA500"/>
<stop offset="1" stop-color="#FF9C00"/>
</linearGradient>
<linearGradient id="paint2_linear_18790_505" x1="28.013" y1="25.0707" x2="2.53727" y2="50.5464" gradientUnits="userSpaceOnUse">
<stop stop-color="#FF3A44"/>
<stop offset="1" stop-color="#C31162"/>
</linearGradient>
<linearGradient id="paint3_linear_18790_505" x1="8.39354" y1="0.309262" x2="19.7695" y2="11.6852" gradientUnits="userSpaceOnUse">
<stop stop-color="#32A071"/>
<stop offset="0.0685" stop-color="#2DA771"/>
<stop offset="0.4762" stop-color="#15CF74"/>
<stop offset="0.8009" stop-color="#06E775"/>
<stop offset="1" stop-color="#00F076"/>
</linearGradient>
<linearGradient id="paint4_linear_18790_505" x1="38.0961" y1="22.5014" x2="11.0095" y2="22.5014" gradientUnits="userSpaceOnUse">
<stop stop-color="#CCB300"/>
<stop offset="0.4087" stop-color="#CC9700"/>
<stop offset="0.7754" stop-color="#CC8400"/>
<stop offset="1" stop-color="#CC7D00"/>
</linearGradient>
<linearGradient id="paint5_linear_18790_505" x1="28.0161" y1="25.0707" x2="2.54042" y2="50.5465" gradientUnits="userSpaceOnUse">
<stop stop-color="#CC2E36"/>
<stop offset="1" stop-color="#9C0E4E"/>
</linearGradient>
<linearGradient id="paint6_linear_18790_505" x1="24.6299" y1="9.8614" x2="5.84356" y2="28.6478" gradientUnits="userSpaceOnUse">
<stop stop-color="#008DE0"/>
<stop offset="0.00657445" stop-color="#008DE0"/>
<stop offset="0.2601" stop-color="#00A7E0"/>
<stop offset="0.5122" stop-color="#00B8E0"/>
<stop offset="0.7604" stop-color="#00C4E0"/>
<stop offset="1" stop-color="#00C7E0"/>
</linearGradient>
<linearGradient id="paint7_linear_18790_505" x1="28.0166" y1="25.07" x2="2.54077" y2="50.5465" gradientUnits="userSpaceOnUse">
<stop stop-color="#E0333C"/>
<stop offset="1" stop-color="#AB0F56"/>
</linearGradient>
<linearGradient id="paint8_linear_18790_505" x1="38.0986" y1="22.5021" x2="11.0123" y2="22.5021" gradientUnits="userSpaceOnUse">
<stop stop-color="#E0C500"/>
<stop offset="0.4087" stop-color="#E0A600"/>
<stop offset="0.7754" stop-color="#E09100"/>
<stop offset="1" stop-color="#E08900"/>
</linearGradient>
<linearGradient id="paint9_linear_18790_505" x1="38.099" y1="22.5016" x2="11.0128" y2="22.5016" gradientUnits="userSpaceOnUse">
<stop stop-color="#FFE840"/>
<stop offset="0.4087" stop-color="#FFCE40"/>
<stop offset="0.7754" stop-color="#FFBC40"/>
<stop offset="1" stop-color="#FFB540"/>
</linearGradient>
<linearGradient id="paint10_linear_18790_505" x1="24.6299" y1="9.86147" x2="5.84355" y2="28.6479" gradientUnits="userSpaceOnUse">
<stop stop-color="#40B8FF"/>
<stop offset="0.00657445" stop-color="#40B9FF"/>
<stop offset="0.2601" stop-color="#40CEFF"/>
<stop offset="0.5122" stop-color="#40DDFF"/>
<stop offset="0.7604" stop-color="#40E7FF"/>
<stop offset="1" stop-color="#40EAFF"/>
</linearGradient>
<linearGradient id="paint11_linear_18790_505" x1="8.39334" y1="0.309416" x2="19.7693" y2="11.6853" gradientUnits="userSpaceOnUse">
<stop stop-color="#65B895"/>
<stop offset="0.0685" stop-color="#62BD95"/>
<stop offset="0.4762" stop-color="#50DB97"/>
<stop offset="0.8009" stop-color="#44ED98"/>
<stop offset="1" stop-color="#40F498"/>
</linearGradient>
</defs>
</svg>
