<svg width="123" height="45" viewBox="0 0 123 45" fill="none" xmlns="http://www.w3.org/2000/svg">
<rect width="123" height="45" rx="5" fill="white"/>
<g clip-path="url(#clip0_213_15779)">
<path d="M27.75 13H20.25C16.7988 13 14 15.7988 14 19.25V26.75C14 30.2013 16.7988 33 20.25 33H27.75C31.2013 33 34 30.2013 34 26.75V19.25C34 15.7988 31.2013 13 27.75 13ZM32.125 26.75C32.125 29.1625 30.1625 31.125 27.75 31.125H20.25C17.8375 31.125 15.875 29.1625 15.875 26.75V19.25C15.875 16.8375 17.8375 14.875 20.25 14.875H27.75C30.1625 14.875 32.125 16.8375 32.125 19.25V26.75Z" fill="url(#paint0_linear_213_15779)"/>
<path d="M24 18C21.2387 18 19 20.2387 19 23C19 25.7613 21.2387 28 24 28C26.7613 28 29 25.7613 29 23C29 20.2387 26.7613 18 24 18ZM24 26.125C22.2775 26.125 20.875 24.7225 20.875 23C20.875 21.2763 22.2775 19.875 24 19.875C25.7225 19.875 27.125 21.2763 27.125 23C27.125 24.7225 25.7225 26.125 24 26.125Z" fill="url(#paint1_linear_213_15779)"/>
<path d="M29.3733 18.2915C29.7412 18.2915 30.0395 17.9932 30.0395 17.6252C30.0395 17.2573 29.7412 16.959 29.3733 16.959C29.0053 16.959 28.707 17.2573 28.707 17.6252C28.707 17.9932 29.0053 18.2915 29.3733 18.2915Z" fill="url(#paint2_linear_213_15779)"/>
</g>
<path d="M46.092 10.2V20H47.772V10.2H46.092ZM53.9655 16.08V20H55.5195V15.898C55.5195 15.1327 55.3281 14.5307 54.9455 14.092C54.5628 13.644 54.0075 13.42 53.2795 13.42C52.8408 13.42 52.4581 13.5133 52.1315 13.7C51.8141 13.8867 51.5528 14.1713 51.3475 14.554V13.56H49.8215V20H51.3475V16.08C51.3475 15.7907 51.4035 15.5387 51.5155 15.324C51.6368 15.1 51.8048 14.932 52.0195 14.82C52.2341 14.6987 52.4861 14.638 52.7755 14.638C53.1768 14.638 53.4755 14.7593 53.6715 15.002C53.8675 15.2447 53.9655 15.604 53.9655 16.08ZM57.7444 17.872L56.8624 18.768C57.049 19.0107 57.2824 19.244 57.5624 19.468C57.8424 19.6827 58.1644 19.86 58.5284 20C58.8924 20.1307 59.2984 20.196 59.7464 20.196C60.4464 20.196 61.0017 20.014 61.4124 19.65C61.8324 19.2767 62.0424 18.7867 62.0424 18.18C62.0424 17.788 61.9537 17.4707 61.7764 17.228C61.599 16.9853 61.361 16.78 61.0624 16.612C60.7637 16.444 60.4324 16.29 60.0684 16.15C59.807 16.0473 59.569 15.9493 59.3544 15.856C59.149 15.7627 58.981 15.66 58.8504 15.548C58.729 15.4267 58.6684 15.2913 58.6684 15.142C58.6684 14.9647 58.7384 14.8293 58.8784 14.736C59.0184 14.6427 59.2004 14.596 59.4244 14.596C59.7417 14.596 60.0497 14.6753 60.3484 14.834C60.647 14.9927 60.899 15.198 61.1044 15.45L61.9444 14.554C61.767 14.3393 61.5524 14.148 61.3004 13.98C61.0484 13.812 60.7637 13.6767 60.4464 13.574C60.1384 13.4713 59.807 13.42 59.4524 13.42C59.0604 13.42 58.6917 13.4853 58.3464 13.616C58.0104 13.7373 57.7397 13.9287 57.5344 14.19C57.3384 14.4513 57.2404 14.778 57.2404 15.17C57.2404 15.5527 57.329 15.87 57.5064 16.122C57.693 16.374 57.9264 16.5793 58.2064 16.738C58.4957 16.8873 58.785 17.018 59.0744 17.13C59.3637 17.2327 59.6157 17.3353 59.8304 17.438C60.045 17.5313 60.213 17.648 60.3344 17.788C60.4557 17.9187 60.5164 18.0773 60.5164 18.264C60.5164 18.4787 60.437 18.6467 60.2784 18.768C60.129 18.8893 59.919 18.95 59.6484 18.95C59.4337 18.95 59.219 18.908 59.0044 18.824C58.7897 18.74 58.5797 18.6187 58.3744 18.46C58.169 18.3013 57.959 18.1053 57.7444 17.872ZM62.488 13.56V14.89H66.142V13.56H62.488ZM63.58 11.32V20H65.064V11.32H63.58ZM68.1368 17.998C68.1368 17.7927 68.1834 17.62 68.2767 17.48C68.3794 17.34 68.5288 17.2327 68.7248 17.158C68.9208 17.074 69.1774 17.032 69.4948 17.032C69.8588 17.032 70.2041 17.0787 70.5308 17.172C70.8574 17.2653 71.1654 17.4147 71.4548 17.62V16.85C71.3708 16.7473 71.2261 16.6353 71.0208 16.514C70.8154 16.3833 70.5541 16.2713 70.2368 16.178C69.9288 16.0847 69.5601 16.038 69.1308 16.038C68.3281 16.038 67.7074 16.2247 67.2688 16.598C66.8301 16.962 66.6108 17.4567 66.6108 18.082C66.6108 18.5207 66.7134 18.894 66.9188 19.202C67.1241 19.51 67.3994 19.7433 67.7448 19.902C68.0901 20.0607 68.4634 20.14 68.8648 20.14C69.2381 20.14 69.6021 20.0747 69.9568 19.944C70.3208 19.804 70.6194 19.594 70.8528 19.314C71.0954 19.034 71.2168 18.6887 71.2168 18.278L70.9928 17.438C70.9928 17.7647 70.9181 18.0447 70.7688 18.278C70.6194 18.5113 70.4188 18.6933 70.1668 18.824C69.9241 18.9453 69.6488 19.006 69.3408 19.006C69.1074 19.006 68.8974 18.9687 68.7108 18.894C68.5334 18.8193 68.3934 18.7073 68.2908 18.558C68.1881 18.3993 68.1368 18.2127 68.1368 17.998ZM67.6608 15.24C67.7634 15.1747 67.9081 15.0953 68.0948 15.002C68.2814 14.8993 68.5054 14.8153 68.7668 14.75C69.0374 14.6753 69.3221 14.638 69.6208 14.638C69.8168 14.638 69.9988 14.6567 70.1668 14.694C70.3348 14.7313 70.4794 14.792 70.6008 14.876C70.7314 14.96 70.8294 15.0673 70.8948 15.198C70.9601 15.3287 70.9928 15.4967 70.9928 15.702V20H72.4768V15.408C72.4768 14.9787 72.3601 14.6147 72.1268 14.316C71.9028 14.0173 71.5854 13.7933 71.1748 13.644C70.7641 13.4853 70.2974 13.406 69.7748 13.406C69.1681 13.406 68.6361 13.49 68.1788 13.658C67.7214 13.826 67.3434 13.9987 67.0448 14.176L67.6608 15.24ZM73.8754 20.434C73.8941 20.994 74.0388 21.4887 74.3094 21.918C74.5801 22.3473 74.9628 22.6787 75.4574 22.912C75.9521 23.1547 76.5448 23.276 77.2354 23.276C77.8234 23.276 78.3694 23.15 78.8734 22.898C79.3774 22.6553 79.7834 22.282 80.0914 21.778C80.4088 21.274 80.5674 20.6347 80.5674 19.86V13.56H79.0834V19.86C79.0834 20.3453 78.9901 20.742 78.8034 21.05C78.6261 21.358 78.3928 21.5867 78.1034 21.736C77.8141 21.8853 77.5154 21.96 77.2074 21.96C76.8434 21.96 76.5261 21.89 76.2554 21.75C75.9848 21.6193 75.7748 21.4373 75.6254 21.204C75.4761 20.98 75.3968 20.7233 75.3874 20.434H73.8754ZM73.7494 16.738C73.7494 17.4473 73.8941 18.0493 74.1834 18.544C74.4728 19.0387 74.8554 19.4167 75.3314 19.678C75.8168 19.9393 76.3348 20.07 76.8854 20.07C77.4268 20.07 77.8981 19.9393 78.2994 19.678C78.7101 19.4073 79.0321 19.0247 79.2654 18.53C79.5081 18.026 79.6294 17.4287 79.6294 16.738C79.6294 16.038 79.5081 15.4453 79.2654 14.96C79.0321 14.4653 78.7101 14.0873 78.2994 13.826C77.8981 13.5553 77.4268 13.42 76.8854 13.42C76.3348 13.42 75.8168 13.5507 75.3314 13.812C74.8554 14.0733 74.4728 14.4513 74.1834 14.946C73.8941 15.4313 73.7494 16.0287 73.7494 16.738ZM75.3174 16.738C75.3174 16.3087 75.4061 15.9447 75.5834 15.646C75.7608 15.3473 75.9941 15.1233 76.2834 14.974C76.5821 14.8153 76.9041 14.736 77.2494 14.736C77.4734 14.736 77.6928 14.778 77.9074 14.862C78.1221 14.946 78.3181 15.0767 78.4954 15.254C78.6728 15.422 78.8128 15.632 78.9154 15.884C79.0274 16.1267 79.0834 16.4113 79.0834 16.738C79.0834 17.1767 78.9901 17.5453 78.8034 17.844C78.6261 18.1427 78.3974 18.3713 78.1174 18.53C77.8374 18.6793 77.5481 18.754 77.2494 18.754C76.9041 18.754 76.5821 18.6793 76.2834 18.53C75.9941 18.3713 75.7608 18.1427 75.5834 17.844C75.4061 17.536 75.3174 17.1673 75.3174 16.738ZM83.9406 13.56H82.4426V20H83.9406V13.56ZM85.8586 15.17L86.6006 13.896C86.4512 13.7187 86.2739 13.5927 86.0686 13.518C85.8632 13.4433 85.6439 13.406 85.4106 13.406C85.0839 13.406 84.7666 13.5273 84.4586 13.77C84.1599 14.0033 83.9126 14.3207 83.7166 14.722C83.5299 15.114 83.4366 15.5667 83.4366 16.08L83.9406 16.374C83.9406 16.066 83.9732 15.8 84.0386 15.576C84.1132 15.3427 84.2299 15.1607 84.3886 15.03C84.5472 14.8993 84.7526 14.834 85.0046 14.834C85.1912 14.834 85.3452 14.862 85.4666 14.918C85.5972 14.974 85.7279 15.058 85.8586 15.17ZM88.5899 17.998C88.5899 17.7927 88.6365 17.62 88.7299 17.48C88.8325 17.34 88.9819 17.2327 89.1779 17.158C89.3739 17.074 89.6305 17.032 89.9479 17.032C90.3119 17.032 90.6572 17.0787 90.9839 17.172C91.3105 17.2653 91.6185 17.4147 91.9079 17.62V16.85C91.8239 16.7473 91.6792 16.6353 91.4739 16.514C91.2685 16.3833 91.0072 16.2713 90.6899 16.178C90.3819 16.0847 90.0132 16.038 89.5839 16.038C88.7812 16.038 88.1605 16.2247 87.7219 16.598C87.2832 16.962 87.0639 17.4567 87.0639 18.082C87.0639 18.5207 87.1665 18.894 87.3719 19.202C87.5772 19.51 87.8525 19.7433 88.1979 19.902C88.5432 20.0607 88.9165 20.14 89.3179 20.14C89.6912 20.14 90.0552 20.0747 90.4099 19.944C90.7739 19.804 91.0725 19.594 91.3059 19.314C91.5485 19.034 91.6699 18.6887 91.6699 18.278L91.4459 17.438C91.4459 17.7647 91.3712 18.0447 91.2219 18.278C91.0725 18.5113 90.8719 18.6933 90.6199 18.824C90.3772 18.9453 90.1019 19.006 89.7939 19.006C89.5605 19.006 89.3505 18.9687 89.1639 18.894C88.9865 18.8193 88.8465 18.7073 88.7439 18.558C88.6412 18.3993 88.5899 18.2127 88.5899 17.998ZM88.1139 15.24C88.2165 15.1747 88.3612 15.0953 88.5479 15.002C88.7345 14.8993 88.9585 14.8153 89.2199 14.75C89.4905 14.6753 89.7752 14.638 90.0739 14.638C90.2699 14.638 90.4519 14.6567 90.6199 14.694C90.7879 14.7313 90.9325 14.792 91.0539 14.876C91.1845 14.96 91.2825 15.0673 91.3479 15.198C91.4132 15.3287 91.4459 15.4967 91.4459 15.702V20H92.9299V15.408C92.9299 14.9787 92.8132 14.6147 92.5799 14.316C92.3559 14.0173 92.0385 13.7933 91.6279 13.644C91.2172 13.4853 90.7505 13.406 90.2279 13.406C89.6212 13.406 89.0892 13.49 88.6319 13.658C88.1745 13.826 87.7965 13.9987 87.4979 14.176L88.1139 15.24ZM103.919 15.898C103.919 15.3753 103.839 14.9273 103.681 14.554C103.531 14.1807 103.307 13.9007 103.009 13.714C102.71 13.518 102.327 13.42 101.861 13.42C101.431 13.42 101.044 13.518 100.699 13.714C100.363 13.9007 100.078 14.1853 99.8446 14.568C99.7046 14.1947 99.4759 13.91 99.1586 13.714C98.8506 13.518 98.4632 13.42 97.9966 13.42C97.5766 13.42 97.2172 13.5133 96.9186 13.7C96.6199 13.8773 96.3726 14.1433 96.1766 14.498V13.56H94.6926V20H96.1766V16.08C96.1766 15.772 96.2279 15.5107 96.3306 15.296C96.4426 15.0813 96.5919 14.918 96.7786 14.806C96.9746 14.694 97.1986 14.638 97.4506 14.638C97.8239 14.638 98.0946 14.7593 98.2626 15.002C98.4399 15.2353 98.5286 15.5947 98.5286 16.08V20H100.041V16.08C100.041 15.772 100.092 15.5107 100.195 15.296C100.307 15.0813 100.456 14.918 100.643 14.806C100.839 14.694 101.067 14.638 101.329 14.638C101.693 14.638 101.959 14.7593 102.127 15.002C102.304 15.2353 102.393 15.5947 102.393 16.08V20H103.919V15.898Z" fill="#282739"/>
<path d="M45.8 28.38L47.35 27.92V34H48.2V26.9L45.8 27.5V28.38ZM50.752 30.5C50.752 30.0933 50.792 29.72 50.872 29.38C50.952 29.0333 51.0686 28.7367 51.222 28.49C51.3753 28.2367 51.5586 28.0433 51.772 27.91C51.992 27.77 52.2353 27.7 52.502 27.7C52.7753 27.7 53.0186 27.77 53.232 27.91C53.4453 28.0433 53.6286 28.2367 53.782 28.49C53.9353 28.7367 54.052 29.0333 54.132 29.38C54.212 29.72 54.252 30.0933 54.252 30.5C54.252 30.9067 54.212 31.2833 54.132 31.63C54.052 31.97 53.9353 32.2667 53.782 32.52C53.6286 32.7667 53.4453 32.96 53.232 33.1C53.0186 33.2333 52.7753 33.3 52.502 33.3C52.2353 33.3 51.992 33.2333 51.772 33.1C51.5586 32.96 51.3753 32.7667 51.222 32.52C51.0686 32.2667 50.952 31.97 50.872 31.63C50.792 31.2833 50.752 30.9067 50.752 30.5ZM49.902 30.5C49.902 31.2 50.012 31.82 50.232 32.36C50.452 32.9 50.7553 33.3267 51.142 33.64C51.5353 33.9467 51.9886 34.1 52.502 34.1C53.0153 34.1 53.4653 33.9467 53.852 33.64C54.2453 33.3267 54.552 32.9 54.772 32.36C54.992 31.82 55.102 31.2 55.102 30.5C55.102 29.8 54.992 29.18 54.772 28.64C54.552 28.1 54.2453 27.6767 53.852 27.37C53.4653 27.0567 53.0153 26.9 52.502 26.9C51.9886 26.9 51.5353 27.0567 51.142 27.37C50.7553 27.6767 50.452 28.1 50.232 28.64C50.012 29.18 49.902 29.8 49.902 30.5ZM59.8061 31.7C59.8061 31.38 59.8728 31.0967 60.0061 30.85C60.1461 30.5967 60.3328 30.4 60.5661 30.26C60.8061 30.12 61.0761 30.05 61.3761 30.05C61.6761 30.05 61.9428 30.12 62.1761 30.26C62.4161 30.4 62.6028 30.5967 62.7361 30.85C62.8761 31.0967 62.9461 31.38 62.9461 31.7C62.9461 32.02 62.8761 32.3033 62.7361 32.55C62.6028 32.79 62.4161 32.98 62.1761 33.12C61.9428 33.26 61.6761 33.33 61.3761 33.33C61.0761 33.33 60.8061 33.26 60.5661 33.12C60.3328 32.98 60.1461 32.79 60.0061 32.55C59.8728 32.3033 59.8061 32.02 59.8061 31.7ZM61.7961 27L59.4361 30.25C59.3028 30.4367 59.1961 30.6533 59.1161 30.9C59.0361 31.1467 58.9961 31.4133 58.9961 31.7C58.9961 32.18 59.0994 32.6 59.3061 32.96C59.5194 33.32 59.8061 33.6 60.1661 33.8C60.5261 34 60.9294 34.1 61.3761 34.1C61.8294 34.1 62.2328 34 62.5861 33.8C62.9461 33.6 63.2294 33.32 63.4361 32.96C63.6494 32.6 63.7561 32.18 63.7561 31.7C63.7561 31.38 63.7028 31.0833 63.5961 30.81C63.4894 30.53 63.3394 30.2867 63.1461 30.08C62.9594 29.8733 62.7394 29.7133 62.4861 29.6C62.2394 29.4867 61.9728 29.43 61.6861 29.43C61.4594 29.43 61.2561 29.4567 61.0761 29.51C60.9028 29.5633 60.7494 29.6733 60.6161 29.84L60.6761 29.89L62.8661 27H61.7961ZM65.5078 30.5C65.5078 30.0933 65.5478 29.72 65.6278 29.38C65.7078 29.0333 65.8245 28.7367 65.9778 28.49C66.1311 28.2367 66.3145 28.0433 66.5278 27.91C66.7478 27.77 66.9911 27.7 67.2578 27.7C67.5311 27.7 67.7745 27.77 67.9878 27.91C68.2011 28.0433 68.3845 28.2367 68.5378 28.49C68.6911 28.7367 68.8078 29.0333 68.8878 29.38C68.9678 29.72 69.0078 30.0933 69.0078 30.5C69.0078 30.9067 68.9678 31.2833 68.8878 31.63C68.8078 31.97 68.6911 32.2667 68.5378 32.52C68.3845 32.7667 68.2011 32.96 67.9878 33.1C67.7745 33.2333 67.5311 33.3 67.2578 33.3C66.9911 33.3 66.7478 33.2333 66.5278 33.1C66.3145 32.96 66.1311 32.7667 65.9778 32.52C65.8245 32.2667 65.7078 31.97 65.6278 31.63C65.5478 31.2833 65.5078 30.9067 65.5078 30.5ZM64.6578 30.5C64.6578 31.2 64.7678 31.82 64.9878 32.36C65.2078 32.9 65.5111 33.3267 65.8978 33.64C66.2911 33.9467 66.7445 34.1 67.2578 34.1C67.7711 34.1 68.2211 33.9467 68.6078 33.64C69.0011 33.3267 69.3078 32.9 69.5278 32.36C69.7478 31.82 69.8578 31.2 69.8578 30.5C69.8578 29.8 69.7478 29.18 69.5278 28.64C69.3078 28.1 69.0011 27.6767 68.6078 27.37C68.2211 27.0567 67.7711 26.9 67.2578 26.9C66.7445 26.9 66.2911 27.0567 65.8978 27.37C65.5111 27.6767 65.2078 28.1 64.9878 28.64C64.7678 29.18 64.6578 29.8 64.6578 30.5ZM70.4539 34H75.3939V33.2H72.2039L74.4339 30.93C74.7072 30.65 74.9306 30.3333 75.1039 29.98C75.2772 29.6267 75.3639 29.27 75.3639 28.91C75.3639 28.6967 75.3206 28.4733 75.2339 28.24C75.1472 28.0067 75.0139 27.79 74.8339 27.59C74.6539 27.3833 74.4239 27.2167 74.1439 27.09C73.8639 26.9567 73.5306 26.89 73.1439 26.89C72.6639 26.89 72.2506 26.9967 71.9039 27.21C71.5639 27.4167 71.3039 27.71 71.1239 28.09C70.9439 28.4633 70.8539 28.9 70.8539 29.4H71.7039C71.7039 29.0467 71.7606 28.7433 71.8739 28.49C71.9872 28.23 72.1506 28.0333 72.3639 27.9C72.5839 27.76 72.8439 27.69 73.1439 27.69C73.3572 27.69 73.5472 27.7267 73.7139 27.8C73.8806 27.8733 74.0206 27.97 74.1339 28.09C74.2539 28.21 74.3439 28.3433 74.4039 28.49C74.4639 28.6367 74.4939 28.7867 74.4939 28.94C74.4939 29.1267 74.4639 29.3067 74.4039 29.48C74.3506 29.6467 74.2672 29.8133 74.1539 29.98C74.0472 30.14 73.9172 30.3033 73.7639 30.47L70.4539 34Z" fill="#5D6C7B"/>
<defs>
<linearGradient id="paint0_linear_213_15779" x1="15.8308" y1="31.1693" x2="32.1692" y2="14.8307" gradientUnits="userSpaceOnUse">
<stop stop-color="#FFC107"/>
<stop offset="0.507" stop-color="#F44336"/>
<stop offset="0.99" stop-color="#9C27B0"/>
</linearGradient>
<linearGradient id="paint1_linear_213_15779" x1="20.4646" y1="26.5354" x2="27.5354" y2="19.4646" gradientUnits="userSpaceOnUse">
<stop stop-color="#FFC107"/>
<stop offset="0.507" stop-color="#F44336"/>
<stop offset="0.99" stop-color="#9C27B0"/>
</linearGradient>
<linearGradient id="paint2_linear_213_15779" x1="28.9022" y1="18.0964" x2="29.8443" y2="17.1542" gradientUnits="userSpaceOnUse">
<stop stop-color="#FFC107"/>
<stop offset="0.507" stop-color="#F44336"/>
<stop offset="0.99" stop-color="#9C27B0"/>
</linearGradient>
<clipPath id="clip0_213_15779">
<rect width="20" height="20" fill="white" transform="translate(14 13)"/>
</clipPath>
</defs>
</svg>
