<svg width="35" height="24" viewBox="0 0 35 24" fill="none" xmlns="http://www.w3.org/2000/svg">
<rect x="1.02466" y="0.559815" width="33.5905" height="22.8805" rx="2.6775" fill="white" stroke="#EAEBED" stroke-width="0.486818"/>
<path d="M20.3463 12.1233C20.3463 15.8352 17.3718 18.8443 13.7025 18.8443C10.0332 18.8443 7.05859 15.8352 7.05859 12.1233C7.05859 8.41144 10.0332 5.40234 13.7025 5.40234C17.3718 5.40234 20.3463 8.41144 20.3463 12.1233Z" fill="#ED0006"/>
<path d="M28.9635 12.1238C28.9635 15.8357 25.989 18.8448 22.3197 18.8448C18.6503 18.8448 15.6758 15.8357 15.6758 12.1238C15.6758 8.41193 18.6503 5.40283 22.3197 5.40283C25.989 5.40283 28.9635 8.41193 28.9635 12.1238Z" fill="#0099DF"/>
<path fill-rule="evenodd" clip-rule="evenodd" d="M18.0106 17.2394C19.4393 16.0067 20.3453 14.1722 20.3453 12.1236C20.3453 10.0751 19.4393 8.24057 18.0106 7.00781C16.5818 8.24057 15.6758 10.0751 15.6758 12.1236C15.6758 14.1722 16.5818 16.0067 18.0106 17.2394Z" fill="#6C6BBD"/>
</svg>
