<svg width="25" height="25" viewBox="0 0 25 25" fill="none" xmlns="http://www.w3.org/2000/svg">
<g clip-path="url(#clip0_265_8122)">
<path d="M23.9404 9.06784H18.7539L15.8446 2.40607C15.6827 2.03542 15.251 1.86603 14.8802 2.02799C14.5095 2.18986 14.3403 2.62165 14.5022 2.99235L17.1555 9.06789H7.84456L10.4979 2.99235C10.6597 2.62165 10.4905 2.18991 10.1198 2.02799C9.74915 1.86603 9.31731 2.03532 9.15549 2.40607L6.24612 9.06784H1.05964C0.381177 9.06784 -0.122338 9.68205 0.0260991 10.3286L2.7573 22.2246C2.86575 22.6969 3.29514 23.0327 3.79085 23.0327H21.2092C21.7049 23.0327 22.1343 22.6969 22.2428 22.2246L24.974 10.3286C25.1224 9.6821 24.6188 9.06784 23.9404 9.06784ZM6.38391 11.3141C6.28606 11.3141 6.1866 11.2944 6.09114 11.2527C5.72044 11.0908 5.55115 10.6591 5.71306 10.2883L6.26326 9.02848H7.86169L7.05544 10.8746C6.93528 11.1499 6.66624 11.3141 6.38391 11.3141ZM8.83792 19.1264C8.83792 19.5309 8.50999 19.8589 8.10549 19.8589C7.701 19.8589 7.37307 19.5309 7.37307 19.1264V13.7553C7.37307 13.3508 7.701 13.0229 8.10549 13.0229C8.50999 13.0229 8.83792 13.3508 8.83792 13.7553V19.1264ZM13.2324 19.1264C13.2324 19.5309 12.9045 19.8589 12.5 19.8589C12.0955 19.8589 11.7676 19.5309 11.7676 19.1264V13.7553C11.7676 13.3508 12.0955 13.0229 12.5 13.0229C12.9045 13.0229 13.2324 13.3508 13.2324 13.7553V19.1264ZM17.627 19.1264C17.627 19.5309 17.299 19.8589 16.8946 19.8589C16.4901 19.8589 16.1621 19.5309 16.1621 19.1264V13.7553C16.1621 13.3508 16.4901 13.0229 16.8946 13.0229C17.299 13.0229 17.627 13.3508 17.627 13.7553V19.1264ZM18.9089 11.2527C18.8135 11.2944 18.714 11.3141 18.6161 11.3141C18.3338 11.3141 18.0648 11.15 17.9446 10.8746L17.1383 9.02853H18.7367L19.2869 10.2884C19.4489 10.6591 19.2796 11.0908 18.9089 11.2527Z" fill="#6F73EE"/>
</g>
<defs>
<clipPath id="clip0_265_8122">
<rect width="25" height="25" fill="white"/>
</clipPath>
</defs>
</svg>
