<svg width="35" height="24" viewBox="0 0 35 24" fill="none" xmlns="http://www.w3.org/2000/svg">
<rect x="1.13403" y="0.559815" width="33.5905" height="22.8805" rx="2.6775" fill="white" stroke="#EAEBED" stroke-width="0.486818"/>
<path fill-rule="evenodd" clip-rule="evenodd" d="M11.2333 16.1459H9.16888L7.62082 10.24C7.54734 9.96828 7.39133 9.72811 7.16183 9.61491C6.58911 9.33044 5.95801 9.10404 5.26953 8.98986V8.76248H8.59515C9.05414 8.76248 9.39838 9.10404 9.45575 9.50073L10.259 13.7609L12.3224 8.76248H14.3294L11.2333 16.1459ZM15.4761 16.1459H13.5264L15.1319 8.76248H17.0815L15.4761 16.1459ZM19.6049 10.808C19.6623 10.4103 20.0065 10.183 20.4081 10.183C21.0392 10.1259 21.7267 10.24 22.3004 10.5235L22.6447 8.93385C22.071 8.70647 21.4399 8.59229 20.8671 8.59229C18.9748 8.59229 17.5979 9.615 17.5979 11.0344C17.5979 12.1142 18.5732 12.6812 19.2617 13.0227C20.0065 13.3633 20.2934 13.5907 20.236 13.9313C20.236 14.4421 19.6623 14.6695 19.0896 14.6695C18.4011 14.6695 17.7126 14.4992 17.0825 14.2148L16.7383 15.8054C17.4268 16.0889 18.1716 16.2031 18.8601 16.2031C20.9819 16.2592 22.3004 15.2375 22.3004 13.7039C22.3004 11.7726 19.6049 11.6594 19.6049 10.808V10.808ZM29.1243 16.1459L27.5762 8.76248H25.9134C25.5691 8.76248 25.2249 8.98986 25.1102 9.33044L22.2435 16.1459H24.2506L24.6512 15.0671H27.1172L27.3467 16.1459H29.1243ZM26.199 10.7509L26.7718 13.5336H25.1663L26.199 10.7509Z" fill="#172B85"/>
</svg>
