<svg width="136" height="45" viewBox="0 0 136 45" fill="none" xmlns="http://www.w3.org/2000/svg">
<path d="M124.359 0.00014625H11.1835C10.771 0.00014625 10.3634 0.00014625 9.95197 0.00239625C9.60756 0.00464625 9.26588 0.0111825 8.91816 0.0166837C8.16273 0.0255733 7.40909 0.092032 6.66377 0.215482C5.9195 0.34162 5.19854 0.579426 4.52528 0.920857C3.85284 1.26518 3.23842 1.71258 2.7043 2.24685C2.16737 2.77961 1.7198 3.39541 1.3788 4.07058C1.03686 4.74439 0.799752 5.46645 0.675675 6.21181C0.550419 6.95623 0.483017 7.70923 0.474075 8.46406C0.463635 8.80899 0.462532 9.15506 0.457031 9.50003V35.5036C0.462532 35.8529 0.463635 36.1913 0.474075 36.5407C0.48302 37.2955 0.550421 38.0485 0.675675 38.7928C0.799409 39.5386 1.03653 40.2611 1.3788 40.9352C1.71965 41.6082 2.16728 42.2215 2.7043 42.7513C3.23639 43.2879 3.85122 43.7356 4.52528 44.0773C5.19853 44.4196 5.91941 44.6589 6.66377 44.787C7.40922 44.9094 8.16278 44.9759 8.91816 44.9859C9.26588 44.9935 9.60756 44.9979 9.95197 44.9979C10.3634 45.0001 10.771 45.0001 11.1835 45.0001H124.359C124.763 45.0001 125.174 45.0001 125.578 44.9979C125.921 44.9979 126.272 44.9935 126.615 44.9859C127.369 44.9764 128.121 44.9099 128.865 44.787C129.612 44.658 130.336 44.4188 131.012 44.0773C131.685 43.7354 132.3 43.2877 132.831 42.7513C133.367 42.2194 133.816 41.6065 134.161 40.9352C134.5 40.2606 134.735 39.5382 134.857 38.7928C134.983 38.0484 135.052 37.2956 135.066 36.5407C135.07 36.1913 135.07 35.8529 135.07 35.5036C135.079 35.0949 135.079 34.6884 135.079 34.273V10.7283C135.079 10.3163 135.079 9.90761 135.07 9.50003C135.07 9.15506 135.07 8.80899 135.066 8.46402C135.052 7.70912 134.983 6.95629 134.857 6.21177C134.735 5.46684 134.5 4.74484 134.161 4.07053C133.466 2.71724 132.365 1.61567 131.012 0.920756C130.336 0.580159 129.612 0.342417 128.865 0.215381C128.122 0.0913869 127.369 0.024905 126.615 0.0165262C126.272 0.0110362 125.921 0.00444375 125.578 0.00225C125.174 0 124.763 0 124.359 0V0.00014625Z" fill="white"/>
<path d="M28.5846 22.3753C28.5971 21.3988 28.8565 20.4414 29.3385 19.5921C29.8205 18.7429 30.5096 18.0293 31.3415 17.5179C30.813 16.7631 30.1158 16.142 29.3053 15.7038C28.4947 15.2656 27.5932 15.0225 26.6723 14.9936C24.7077 14.7874 22.8032 16.1692 21.8021 16.1692C20.7817 16.1692 19.2404 15.0141 17.5806 15.0483C16.507 15.0829 15.4608 15.3951 14.5437 15.9544C13.6267 16.5137 12.8701 17.301 12.3478 18.2395C10.0853 22.1568 11.7729 27.9139 13.9403 31.0803C15.0246 32.6308 16.2919 34.3628 17.9502 34.3013C19.5729 34.234 20.1789 33.2666 22.1377 33.2666C24.0782 33.2666 24.6468 34.3013 26.3387 34.2623C28.08 34.234 29.177 32.7049 30.2234 31.1397C31.0025 30.0349 31.602 28.8139 31.9997 27.5218C30.9881 27.094 30.1248 26.3778 29.5175 25.4626C28.9102 24.5474 28.5857 23.4737 28.5846 22.3753Z" fill="#282739"/>
<path d="M25.3879 12.9113C26.3373 11.7716 26.8051 10.3066 26.6918 8.82764C25.2413 8.97998 23.9015 9.6732 22.9393 10.7692C22.4688 11.3046 22.1085 11.9275 21.8789 12.6022C21.6494 13.277 21.555 13.9904 21.6013 14.7016C22.3268 14.7091 23.0445 14.5518 23.7004 14.2417C24.3563 13.9316 24.9333 13.4767 25.3879 12.9113V12.9113Z" fill="#282739"/>
<path d="M48.0469 30.5321H42.7218L41.443 34.3081H39.1875L44.2313 20.3379H46.5747L51.6185 34.3081H49.3246L48.0469 30.5321ZM43.2733 28.7897H47.4943L45.4135 22.6615H45.3552L43.2733 28.7897Z" fill="#282739"/>
<path d="M62.5124 29.2159C62.5124 32.381 60.8183 34.4146 58.2617 34.4146C57.6141 34.4485 56.9701 34.2993 56.4033 33.9841C55.8365 33.669 55.37 33.2006 55.057 32.6326H55.0087V37.6775H52.918V24.1226H54.9417V25.8167H54.9801C55.3074 25.2514 55.7819 24.7855 56.353 24.4684C56.924 24.1513 57.5704 23.995 58.2233 24.016C60.8084 24.016 62.5124 26.0595 62.5124 29.2159ZM60.3634 29.2159C60.3634 27.1538 59.2978 25.798 57.6718 25.798C56.0744 25.798 54.9999 27.1823 54.9999 29.2159C54.9999 31.2681 56.0744 32.6425 57.6718 32.6425C59.2978 32.6425 60.3634 31.2967 60.3634 29.2159H60.3634Z" fill="#282739"/>
<path d="M73.7238 29.2159C73.7238 32.381 72.0292 34.4146 69.4727 34.4146C68.8251 34.4485 68.181 34.2993 67.6142 33.9841C67.0475 33.669 66.5809 33.2006 66.268 32.6326H66.2196V37.6775H64.1289V24.1226H66.1526V25.8167H66.191C66.5184 25.2514 66.9928 24.7855 67.5639 24.4684C68.135 24.1513 68.7813 23.995 69.4342 24.016C72.0193 24.016 73.7238 26.0595 73.7238 29.2159ZM71.5744 29.2159C71.5744 27.1538 70.5087 25.798 68.8827 25.798C67.2853 25.798 66.2108 27.1823 66.2108 29.2159C66.2108 31.2681 67.2853 32.6425 68.8827 32.6425C70.5087 32.6425 71.5744 31.2967 71.5744 29.2159V29.2159Z" fill="#282739"/>
<path d="M81.1324 30.4157C81.2873 31.8011 82.6331 32.7107 84.4722 32.7107C86.2344 32.7107 87.5022 31.801 87.5022 30.5519C87.5022 29.4675 86.7376 28.8183 84.9271 28.3733L83.1165 27.9371C80.5512 27.3175 79.3603 26.1178 79.3603 24.171C79.3603 21.7606 81.4609 20.105 84.4426 20.105C87.3957 20.105 89.4194 21.7606 89.4875 24.171H87.377C87.2507 22.7769 86.0982 21.9353 84.414 21.9353C82.7298 21.9353 81.5773 22.7868 81.5773 24.026C81.5773 25.0137 82.3134 25.5949 84.1141 26.0398L85.6532 26.4177C88.5196 27.0955 89.7094 28.2469 89.7094 30.2904C89.7094 32.904 87.6286 34.541 84.3173 34.541C81.2191 34.541 79.1273 32.9425 78.9922 30.4156L81.1324 30.4157Z" fill="#282739"/>
<path d="M94.2222 21.7124V24.1228H96.1591V25.7784H94.2222V31.3936C94.2222 32.2659 94.61 32.6724 95.4614 32.6724C95.6914 32.6684 95.9209 32.6522 96.1492 32.624V34.2697C95.7664 34.3413 95.3773 34.3737 94.9879 34.3664C92.9258 34.3664 92.1216 33.5919 92.1216 31.6165V25.7784H90.6406V24.1228H92.1215V21.7124H94.2222Z" fill="#282739"/>
<path d="M97.2812 29.2161C97.2812 26.0114 99.1687 23.9976 102.112 23.9976C105.065 23.9976 106.944 26.0113 106.944 29.2161C106.944 32.4296 105.075 34.4346 102.112 34.4346C99.15 34.4346 97.2812 32.4296 97.2812 29.2161ZM104.813 29.2161C104.813 27.0177 103.806 25.7202 102.112 25.7202C100.418 25.7202 99.4104 27.0276 99.4104 29.2161C99.4104 31.4232 100.418 32.7108 102.112 32.7108C103.806 32.7108 104.813 31.4232 104.813 29.2161H104.813Z" fill="#282739"/>
<path d="M108.664 24.1225H110.658V25.8561H110.706C110.841 25.3147 111.159 24.8362 111.605 24.5011C112.051 24.166 112.599 23.9946 113.156 24.0159C113.397 24.0151 113.638 24.0413 113.873 24.0939V26.0495C113.569 25.9566 113.251 25.9139 112.933 25.9232C112.63 25.9108 112.327 25.9644 112.046 26.0801C111.765 26.1959 111.512 26.3711 111.305 26.5937C111.098 26.8163 110.942 27.0811 110.847 27.3699C110.752 27.6586 110.72 27.9645 110.755 28.2665V34.3079H108.664L108.664 24.1225Z" fill="#282739"/>
<path d="M123.512 31.3167C123.231 33.1656 121.43 34.4346 119.126 34.4346C116.163 34.4346 114.324 32.4493 114.324 29.2644C114.324 26.0696 116.173 23.9976 119.038 23.9976C121.856 23.9976 123.629 25.9333 123.629 29.0216V29.7379H116.435V29.8643C116.401 30.2391 116.448 30.6167 116.572 30.972C116.696 31.3274 116.894 31.6523 117.154 31.9251C117.413 32.198 117.727 32.4126 118.075 32.5547C118.424 32.6968 118.799 32.7631 119.175 32.7493C119.669 32.7956 120.165 32.6811 120.588 32.423C121.012 32.1649 121.341 31.7769 121.527 31.3166L123.512 31.3167ZM116.445 28.2767H121.537C121.555 27.9397 121.504 27.6024 121.387 27.286C121.269 26.9697 121.087 26.6811 120.852 26.4383C120.618 26.1956 120.336 26.004 120.023 25.8755C119.711 25.747 119.376 25.6844 119.038 25.6917C118.698 25.6896 118.36 25.755 118.045 25.8841C117.73 26.0132 117.444 26.2034 117.203 26.4437C116.962 26.6841 116.771 26.9698 116.64 27.2844C116.51 27.599 116.444 27.9363 116.445 28.2767V28.2767Z" fill="#282739"/>
<path d="M41.7899 12.6601H42.6875C42.842 12.6793 42.9988 12.6663 43.1481 12.622C43.2973 12.5776 43.4358 12.5028 43.5547 12.4022C43.6736 12.3017 43.7704 12.1776 43.8389 12.0378C43.9075 11.898 43.9464 11.7456 43.9531 11.59C43.9531 10.9709 43.4873 10.571 42.6974 10.571C42.5391 10.5489 42.3779 10.5587 42.2235 10.5999C42.0691 10.6411 41.9244 10.7128 41.7982 10.8108C41.6719 10.9088 41.5665 11.0311 41.4883 11.1705C41.4101 11.3099 41.3606 11.4636 41.3428 11.6224H40.3573C40.3742 11.3341 40.4504 11.0523 40.5809 10.7947C40.7115 10.537 40.8937 10.309 41.1162 10.1249C41.3387 9.9407 41.5968 9.80431 41.8743 9.72419C42.1518 9.64407 42.4428 9.62193 42.7292 9.65915C44.0509 9.65915 44.9815 10.3991 44.9815 11.4642C44.9846 11.821 44.8652 12.1681 44.6432 12.4475C44.4213 12.727 44.1102 12.9218 43.762 12.9995V13.0786C44.1748 13.097 44.5637 13.278 44.8434 13.5822C45.1232 13.8863 45.2712 14.2889 45.255 14.7019C45.2245 14.9988 45.1349 15.2865 44.9917 15.5484C44.8485 15.8102 44.6545 16.0408 44.421 16.2267C44.1875 16.4126 43.9192 16.55 43.6319 16.6308C43.3446 16.7117 43.0441 16.7343 42.7479 16.6975C42.4511 16.738 42.1492 16.7183 41.8602 16.6396C41.5712 16.5609 41.301 16.4248 41.0657 16.2394C40.8304 16.0541 40.6349 15.8232 40.4907 15.5607C40.3465 15.2981 40.2567 15.0092 40.2266 14.7112H41.2274C41.2878 15.3534 41.8778 15.7676 42.7479 15.7676C43.618 15.7676 44.186 15.3023 44.186 14.6464C44.186 13.9812 43.651 13.5714 42.7161 13.5714H41.7899V12.6601Z" fill="#282739"/>
<path d="M46.3906 15.102C46.3906 14.1902 47.0707 13.6645 48.2748 13.5898L49.647 13.5107V13.0734C49.647 12.5384 49.2943 12.2363 48.6099 12.2363C48.0518 12.2363 47.6661 12.4412 47.5541 12.7993H46.5862C46.6884 11.9292 47.5079 11.3711 48.6571 11.3711C49.9271 11.3711 50.6434 12.0033 50.6434 13.0734V16.5347H49.6799V15.8228H49.6008C49.4403 16.0781 49.2148 16.2863 48.9475 16.426C48.6802 16.5658 48.3806 16.6321 48.0792 16.6181C47.8666 16.6402 47.6516 16.6176 47.4483 16.5515C47.2449 16.4855 47.0577 16.3776 46.8986 16.2347C46.7395 16.0919 46.6121 15.9173 46.5246 15.7222C46.4371 15.5271 46.3915 15.3159 46.3906 15.102V15.102ZM49.647 14.6692V14.2457L48.4099 14.3248C47.7122 14.3714 47.3958 14.6088 47.3958 15.0553C47.3958 15.5113 47.7913 15.7766 48.3352 15.7766C48.4946 15.7927 48.6555 15.7766 48.8085 15.7293C48.9615 15.6819 49.1035 15.6043 49.2259 15.501C49.3482 15.3977 49.4486 15.2708 49.5209 15.1279C49.5933 14.985 49.6362 14.829 49.647 14.6692V14.6692Z" fill="#282739"/>
<path d="M53.2966 12.3103V16.5345H52.2969V11.4688H55.6324V12.3102L53.2966 12.3103Z" fill="#282739"/>
<path d="M61.6917 14.0005C61.6917 15.61 60.8776 16.6191 59.5988 16.6191C59.2848 16.6405 58.9713 16.5718 58.6951 16.4211C58.419 16.2703 58.1916 16.0438 58.0398 15.7682H57.9607V18.2198H56.9609V11.4698H57.9233V12.307H57.9981C58.1526 12.0217 58.3829 11.7847 58.6636 11.6222C58.9444 11.4596 59.2646 11.3778 59.5889 11.3858C60.8776 11.3858 61.6917 12.3904 61.6917 14.0005ZM60.6633 14.0005C60.6633 12.9304 60.1569 12.2839 59.3098 12.2839C58.4683 12.2839 57.942 12.9442 57.942 14.0049C57.942 15.0607 58.4683 15.7215 59.3054 15.7215C60.1569 15.7215 60.6633 15.075 60.6633 14.0005Z" fill="#282739"/>
<path d="M63.0242 18.3489V17.4882C63.1324 17.5019 63.2414 17.5081 63.3505 17.5068C63.5635 17.5226 63.7748 17.4592 63.9439 17.3287C64.113 17.1982 64.228 17.0099 64.2667 16.7999L64.3414 16.5532L62.5078 11.4688H63.5966L64.8666 15.4925H64.9457L66.2113 11.4688H67.2715L65.383 16.7438C64.9501 17.9765 64.4711 18.372 63.4384 18.372C63.3549 18.372 63.1176 18.3627 63.0242 18.3489Z" fill="#282739"/>
<path d="M68.0508 15.0971H69.0461C69.1439 15.5437 69.5625 15.7766 70.1481 15.7766C70.8139 15.7766 71.2225 15.4833 71.2225 15.0273C71.2225 14.539 70.8556 14.3061 70.1481 14.3061H69.39V13.5294H70.1349C70.7391 13.5294 71.0468 13.297 71.0468 12.8735C71.0468 12.5016 70.749 12.2176 70.1349 12.2176C69.5757 12.2176 69.167 12.4549 69.1021 12.8548H68.1387C68.2107 12.3953 68.4602 11.9824 68.8335 11.705C69.2068 11.4275 69.6741 11.3076 70.1349 11.3711C71.339 11.3711 72.0278 11.9155 72.0278 12.7713C72.0335 13.0097 71.9571 13.2427 71.8115 13.4315C71.6659 13.6202 71.46 13.7533 71.228 13.8084V13.8875C71.5042 13.9232 71.7576 14.0589 71.9403 14.269C72.1229 14.4791 72.2221 14.749 72.219 15.0274C72.219 15.9904 71.3994 16.6275 70.1481 16.6275C69.0418 16.6275 68.1431 16.1205 68.0508 15.0971Z" fill="#282739"/>
<path d="M73.6602 16.5345V11.4688H74.6511V14.9531H74.7302L77.0648 11.4688H78.0558V16.5346H77.0648V13.0316H76.9901L74.6511 16.5346L73.6602 16.5345Z" fill="#282739"/>
<path d="M83.5117 12.3112H81.9164V16.5355H80.9156V12.3112H79.3203V11.4697H83.5117V12.3112Z" fill="#282739"/>
<path d="M88.8977 15.167C88.7615 15.6299 88.4669 16.0303 88.0655 16.2982C87.6641 16.5661 87.1813 16.6844 86.7015 16.6325C86.3678 16.6413 86.0361 16.5774 85.7296 16.4452C85.423 16.313 85.1489 16.1156 84.9262 15.8668C84.7036 15.6181 84.5377 15.3238 84.4402 15.0045C84.3427 14.6852 84.3158 14.3485 84.3614 14.0178C84.317 13.686 84.3444 13.3486 84.4417 13.0284C84.539 12.7081 84.7039 12.4125 84.9254 12.1615C85.1469 11.9106 85.4197 11.7101 85.7254 11.5738C86.031 11.4374 86.3624 11.3683 86.6971 11.3712C88.1067 11.3712 88.9581 12.3342 88.9581 13.9249V14.2738H85.381V14.3298C85.3651 14.5158 85.3884 14.703 85.4492 14.8794C85.51 15.0558 85.6071 15.2176 85.7341 15.3542C85.8612 15.4909 86.0154 15.5995 86.187 15.673C86.3585 15.7465 86.5435 15.7833 86.7301 15.7811C86.9691 15.8096 87.2112 15.7665 87.4256 15.6572C87.64 15.5478 87.817 15.3772 87.9342 15.1669L88.8977 15.167ZM85.381 13.5344H87.9386C87.9512 13.3645 87.9282 13.1938 87.8709 13.0333C87.8137 12.8728 87.7235 12.726 87.6062 12.6024C87.4888 12.4789 87.347 12.3812 87.1897 12.3157C87.0324 12.2502 86.8631 12.2183 86.6927 12.2221C86.5198 12.2197 86.3481 12.2521 86.1878 12.3172C86.0276 12.3823 85.882 12.4789 85.7597 12.6012C85.6375 12.7236 85.5409 12.8692 85.4759 13.0295C85.4108 13.1897 85.3786 13.3614 85.381 13.5344H85.381Z" fill="#282739"/>
<path d="M93.1367 11.4688H95.4208C96.4117 11.4688 96.9929 11.9708 96.9929 12.7569C96.9944 13.0063 96.9103 13.2487 96.7545 13.4435C96.5987 13.6383 96.3807 13.7736 96.1371 13.8269V13.906C96.4329 13.9247 96.7103 14.0563 96.9119 14.2737C97.1135 14.491 97.2239 14.7775 97.2203 15.0739C97.2203 15.9577 96.5556 16.5345 95.4438 16.5345H93.1367V11.4688ZM94.1277 12.2361V13.5479H95.1187C95.7229 13.5479 96.0118 13.3155 96.0118 12.8871C96.0118 12.4921 95.7603 12.2361 95.2296 12.2361L94.1277 12.2361ZM94.1277 14.2829V15.7672H95.3132C95.9042 15.7672 96.2206 15.5062 96.2206 15.0272C96.2206 14.5202 95.8625 14.2829 95.1879 14.2829L94.1277 14.2829Z" fill="#282739"/>
</svg>
